{"title":"The Investigation Ep2 The Madd House XviD","uid":6383827,"size":183282213,"categoryP":"video","categoryS":"tv_shows","magnet":"?xt=urn:btih:4f87c69d115f55c583344d2f851c35a0df56d2b6&amp;dn=The+Investigation+Ep2+The+Madd+House+XviD&amp;tr=udp%3A%2F%2Ftracker.openbittorrent.com%3A80&amp;tr=udp%3A%2F%2Fopen.demonii.com%3A1337&amp;tr=udp%3A%2F%2Ftracker.coppersurfer.tk%3A6969&amp;tr=udp%3A%2F%2Fexodus.desync.com%3A6969","seeders":0,"leechers":1,"uploader":"trialNerror","files":2,"time":1305125137,"description":"The independant ghost hunting group, Southern Tablelands Paranormal Research Society, sets out to capture and document paranormal activity in and around New South Wales.\n\nShot in New South Wales, Australia.\nAll rights reserved Ã‚Â© 2011.\n\nYou are free to distribute and copy this documentary so long as this nfo file accompanies it.\n\n\nFormat : AVI\nFormat/Info : Audio Video Interleave\nFile size : 175 MiB\nDuration : 16mn 33s\nOverall bit rate : 1 475 Kbps\nWriting application : VirtualDubMod 1.5.4.1 (build 2178/release)\nWriting library : VirtualDubMod build 2178/release\n\nVideo\nID : 0\nFormat : MPEG-4 Visual\nFormat profile : Advanced Simple@L5\nFormat settings, BVOP : Yes\nFormat settings, QPel : No\nFormat settings, GMC : No warppoints\nFormat settings, Matrix : Custom\nCodec ID : XVID\nCodec ID/Hint : XviD\nDuration : 16mn 33s\nBit rate : 1 351 Kbps\nWidth : 640 pixels\nHeight : 480 pixels\nDisplay aspect ratio : 4:3\nFrame rate : 30.000 fps\nColor space : YUV\nChroma subsampling : 4:2:0\nBit depth : 8 bits\nScan type : Progressive\nBits/(Pixel*Frame) : 0.147\nStream size : 160 MiB (92%)\nWriting library : XviD 1.2.0.dev47 (UTC 2006-11-01)\n\nAudio\nID : 1\nFormat : MPEG Audio\nFormat version : Version 1\nFormat profile : Layer 3\nMode : Joint stereo\nCodec ID : 55\nCodec ID/Hint : MP3\nDuration : 16mn 33s\nBit rate mode : Variable\nBit rate : 110 Kbps\nNominal bit rate : 128 Kbps\nChannel(s) : 2 channels\nSampling rate : 44.1 KHz\nStream size : 13.1 MiB (7%)\nAlignment : Aligned on interleaves\nInterleave, duration : 26 ms (0.78 video frame)\nInterleave, preload duration : 611 ms\nWriting library : LAME3.98r\nEncoding settings : -m j -V 4 -q 2 -lowpass 17 --abr 128","torrent":{"xt":"urn:btih:4f87c69d115f55c583344d2f851c35a0df56d2b6","amp;dn":"The+Investigation+Ep2+The+Madd+House+XviD","amp;tr":["udp%3A%2F%2Ftracker.openbittorrent.com%3A80","udp%3A%2F%2Fopen.demonii.com%3A1337","udp%3A%2F%2Ftracker.coppersurfer.tk%3A6969","udp%3A%2F%2Fexodus.desync.com%3A6969"],"infoHash":"4f87c69d115f55c583344d2f851c35a0df56d2b6","infoHashBuffer":{"type":"Buffer","data":[79,135,198,157,17,95,85,197,131,52,77,47,133,28,53,160,223,86,210,182]},"announce":[],"urlList":[]}}